<svg width="192" height="151" viewBox="0 0 192 151" fill="none" xmlns="http://www.w3.org/2000/svg">
<g opacity="0.16">
<rect y="5.9292" width="5.17241" height="5.18919" transform="rotate(-90 0 5.9292)" fill="#02060C"/>
<rect x="41.5134" y="5.9292" width="5.17241" height="5.18919" transform="rotate(-90 41.5134 5.9292)" fill="#02060C"/>
<rect x="20.7568" y="5.9292" width="5.17241" height="5.18919" transform="rotate(-90 20.7568 5.9292)" fill="#02060C"/>
<rect x="62.2703" y="5.9292" width="5.17241" height="5.18919" transform="rotate(-90 62.2703 5.9292)" fill="#02060C"/>
<rect x="83.0271" y="5.9292" width="5.17241" height="5.18919" transform="rotate(-90 83.0271 5.9292)" fill="#02060C"/>
<rect y="67.9983" width="5.17241" height="5.18919" transform="rotate(-90 0 67.9983)" fill="#02060C"/>
<rect x="41.5134" y="67.9983" width="5.17241" height="5.18919" transform="rotate(-90 41.5134 67.9983)" fill="#02060C"/>
<rect x="20.7568" y="67.9983" width="5.17241" height="5.18919" transform="rotate(-90 20.7568 67.9983)" fill="#02060C"/>
<rect x="62.2703" y="67.9983" width="5.17241" height="5.18919" transform="rotate(-90 62.2703 67.9983)" fill="#02060C"/>
<rect x="83.0271" y="67.9983" width="5.17241" height="5.18919" transform="rotate(-90 83.0271 67.9983)" fill="#02060C"/>
<rect x="103.784" y="5.9292" width="5.17241" height="5.18919" transform="rotate(-90 103.784 5.9292)" fill="#02060C"/>
<rect x="145.297" y="5.9292" width="5.17241" height="5.18919" transform="rotate(-90 145.297 5.9292)" fill="#02060C"/>
<rect x="124.541" y="5.9292" width="5.17241" height="5.18919" transform="rotate(-90 124.541 5.9292)" fill="#02060C"/>
<rect x="166.054" y="5.9292" width="5.17241" height="5.18919" transform="rotate(-90 166.054 5.9292)" fill="#02060C"/>
<rect x="186.811" y="5.9292" width="5.17241" height="5.18919" transform="rotate(-90 186.811 5.9292)" fill="#02060C"/>
<rect x="103.784" y="67.9983" width="5.17241" height="5.18919" transform="rotate(-90 103.784 67.9983)" fill="#02060C"/>
<rect x="145.297" y="67.9983" width="5.17241" height="5.18919" transform="rotate(-90 145.297 67.9983)" fill="#02060C"/>
<rect x="124.541" y="67.9983" width="5.17241" height="5.18919" transform="rotate(-90 124.541 67.9983)" fill="#02060C"/>
<rect x="166.054" y="67.9983" width="5.17241" height="5.18919" transform="rotate(-90 166.054 67.9983)" fill="#02060C"/>
<rect x="186.811" y="67.9983" width="5.17241" height="5.18919" transform="rotate(-90 186.811 67.9983)" fill="#02060C"/>
<rect y="26.6189" width="5.17241" height="5.18919" transform="rotate(-90 0 26.6189)" fill="#02060C"/>
<rect x="41.5134" y="26.6189" width="5.17241" height="5.18919" transform="rotate(-90 41.5134 26.6189)" fill="#02060C"/>
<rect x="20.7568" y="26.6189" width="5.17241" height="5.18919" transform="rotate(-90 20.7568 26.6189)" fill="#02060C"/>
<rect x="62.2703" y="26.6189" width="5.17241" height="5.18919" transform="rotate(-90 62.2703 26.6189)" fill="#02060C"/>
<rect x="83.0271" y="26.6189" width="5.17241" height="5.18919" transform="rotate(-90 83.0271 26.6189)" fill="#02060C"/>
<rect y="88.688" width="5.17241" height="5.18919" transform="rotate(-90 0 88.688)" fill="#02060C"/>
<rect x="41.5134" y="88.688" width="5.17241" height="5.18919" transform="rotate(-90 41.5134 88.688)" fill="#02060C"/>
<rect x="20.7568" y="88.688" width="5.17241" height="5.18919" transform="rotate(-90 20.7568 88.688)" fill="#02060C"/>
<rect x="62.2703" y="88.688" width="5.17241" height="5.18919" transform="rotate(-90 62.2703 88.688)" fill="#02060C"/>
<rect x="83.0271" y="88.688" width="5.17241" height="5.18919" transform="rotate(-90 83.0271 88.688)" fill="#02060C"/>
<rect y="130.067" width="5.17241" height="5.18919" transform="rotate(-90 0 130.067)" fill="#02060C"/>
<rect x="41.5134" y="130.067" width="5.17241" height="5.18919" transform="rotate(-90 41.5134 130.067)" fill="#02060C"/>
<rect x="20.7568" y="130.067" width="5.17241" height="5.18919" transform="rotate(-90 20.7568 130.067)" fill="#02060C"/>
<rect x="62.2703" y="130.067" width="5.17241" height="5.18919" transform="rotate(-90 62.2703 130.067)" fill="#02060C"/>
<rect x="83.0271" y="130.067" width="5.17241" height="5.18919" transform="rotate(-90 83.0271 130.067)" fill="#02060C"/>
<rect x="103.784" y="26.6189" width="5.17241" height="5.18919" transform="rotate(-90 103.784 26.6189)" fill="#02060C"/>
<rect x="145.297" y="26.6189" width="5.17241" height="5.18919" transform="rotate(-90 145.297 26.6189)" fill="#02060C"/>
<rect x="124.541" y="26.6189" width="5.17241" height="5.18919" transform="rotate(-90 124.541 26.6189)" fill="#02060C"/>
<rect x="166.054" y="26.6189" width="5.17241" height="5.18919" transform="rotate(-90 166.054 26.6189)" fill="#02060C"/>
<rect x="186.811" y="26.6189" width="5.17241" height="5.18919" transform="rotate(-90 186.811 26.6189)" fill="#02060C"/>
<rect x="103.784" y="88.688" width="5.17241" height="5.18919" transform="rotate(-90 103.784 88.688)" fill="#02060C"/>
<rect x="145.297" y="88.688" width="5.17241" height="5.18919" transform="rotate(-90 145.297 88.688)" fill="#02060C"/>
<rect x="124.541" y="88.688" width="5.17241" height="5.18919" transform="rotate(-90 124.541 88.688)" fill="#02060C"/>
<rect x="166.054" y="88.688" width="5.17241" height="5.18919" transform="rotate(-90 166.054 88.688)" fill="#02060C"/>
<rect x="186.811" y="88.688" width="5.17241" height="5.18919" transform="rotate(-90 186.811 88.688)" fill="#02060C"/>
<rect x="103.784" y="130.067" width="5.17241" height="5.18919" transform="rotate(-90 103.784 130.067)" fill="#02060C"/>
<rect x="145.297" y="130.067" width="5.17241" height="5.18919" transform="rotate(-90 145.297 130.067)" fill="#02060C"/>
<rect x="124.541" y="130.067" width="5.17241" height="5.18919" transform="rotate(-90 124.541 130.067)" fill="#02060C"/>
<rect x="166.054" y="130.067" width="5.17241" height="5.18919" transform="rotate(-90 166.054 130.067)" fill="#02060C"/>
<rect x="186.811" y="130.067" width="5.17241" height="5.18919" transform="rotate(-90 186.811 130.067)" fill="#02060C"/>
<rect y="47.3086" width="5.17241" height="5.18919" transform="rotate(-90 0 47.3086)" fill="#02060C"/>
<rect x="41.5134" y="47.3086" width="5.17241" height="5.18919" transform="rotate(-90 41.5134 47.3086)" fill="#02060C"/>
<rect x="20.7568" y="47.3086" width="5.17241" height="5.18919" transform="rotate(-90 20.7568 47.3086)" fill="#02060C"/>
<rect x="62.2703" y="47.3086" width="5.17241" height="5.18919" transform="rotate(-90 62.2703 47.3086)" fill="#02060C"/>
<rect x="83.0271" y="47.3086" width="5.17241" height="5.18919" transform="rotate(-90 83.0271 47.3086)" fill="#02060C"/>
<rect y="109.377" width="5.17241" height="5.18919" transform="rotate(-90 0 109.377)" fill="#02060C"/>
<rect x="41.5134" y="109.377" width="5.17241" height="5.18919" transform="rotate(-90 41.5134 109.377)" fill="#02060C"/>
<rect x="20.7568" y="109.377" width="5.17241" height="5.18919" transform="rotate(-90 20.7568 109.377)" fill="#02060C"/>
<rect x="62.2703" y="109.377" width="5.17241" height="5.18919" transform="rotate(-90 62.2703 109.377)" fill="#02060C"/>
<rect x="83.0271" y="109.377" width="5.17241" height="5.18919" transform="rotate(-90 83.0271 109.377)" fill="#02060C"/>
<rect y="150.757" width="5.17241" height="5.18919" transform="rotate(-90 0 150.757)" fill="#02060C"/>
<rect x="41.5134" y="150.757" width="5.17241" height="5.18919" transform="rotate(-90 41.5134 150.757)" fill="#02060C"/>
<rect x="20.7568" y="150.757" width="5.17241" height="5.18919" transform="rotate(-90 20.7568 150.757)" fill="#02060C"/>
<rect x="62.2703" y="150.757" width="5.17241" height="5.18919" transform="rotate(-90 62.2703 150.757)" fill="#02060C"/>
<rect x="83.0271" y="150.757" width="5.17241" height="5.18919" transform="rotate(-90 83.0271 150.757)" fill="#02060C"/>
<rect x="103.784" y="47.3086" width="5.17241" height="5.18919" transform="rotate(-90 103.784 47.3086)" fill="#02060C"/>
<rect x="145.297" y="47.3086" width="5.17241" height="5.18919" transform="rotate(-90 145.297 47.3086)" fill="#02060C"/>
<rect x="124.541" y="47.3086" width="5.17241" height="5.18919" transform="rotate(-90 124.541 47.3086)" fill="#02060C"/>
<rect x="166.054" y="47.3086" width="5.17241" height="5.18919" transform="rotate(-90 166.054 47.3086)" fill="#02060C"/>
<rect x="186.811" y="47.3086" width="5.17241" height="5.18919" transform="rotate(-90 186.811 47.3086)" fill="#02060C"/>
<rect x="103.784" y="109.377" width="5.17241" height="5.18919" transform="rotate(-90 103.784 109.377)" fill="#02060C"/>
<rect x="145.297" y="109.377" width="5.17241" height="5.18919" transform="rotate(-90 145.297 109.377)" fill="#02060C"/>
<rect x="124.541" y="109.377" width="5.17241" height="5.18919" transform="rotate(-90 124.541 109.377)" fill="#02060C"/>
<rect x="166.054" y="109.377" width="5.17241" height="5.18919" transform="rotate(-90 166.054 109.377)" fill="#02060C"/>
<rect x="186.811" y="109.377" width="5.17241" height="5.18919" transform="rotate(-90 186.811 109.377)" fill="#02060C"/>
<rect x="103.784" y="150.757" width="5.17241" height="5.18919" transform="rotate(-90 103.784 150.757)" fill="#02060C"/>
<rect x="145.297" y="150.757" width="5.17241" height="5.18919" transform="rotate(-90 145.297 150.757)" fill="#02060C"/>
<rect x="124.541" y="150.757" width="5.17241" height="5.18919" transform="rotate(-90 124.541 150.757)" fill="#02060C"/>
<rect x="166.054" y="150.757" width="5.17241" height="5.18919" transform="rotate(-90 166.054 150.757)" fill="#02060C"/>
<rect x="186.811" y="150.757" width="5.17241" height="5.18919" transform="rotate(-90 186.811 150.757)" fill="#02060C"/>
</g>
</svg>
